<svg xmlns="http://www.w3.org/2000/svg" viewBox="0 0 32 22" width="24" height="24" fill="currentColor">
  <!-- Official Qiniu brand mark from https://www.qiniu.com header logo (logomark only). -->
  <path d="M31.022 1.061a1.23 1.23 0 00-1.163.219 18.159 18.159 0 01-19.322 5.585c-.45-1.63-.768-2.792-.768-2.792a1.453 1.453 0 00-1.637-.941l.364 2.95a18.183 18.183 0 01-6.333-4.797A1.23 1.23 0 001 1.065a16.076 16.076 0 007.958 8.78l.998 8.069S10.402 21 13.296 21h6.195c2.894 0 3.342-3.086 3.342-3.086l.698-5.782c-1.881-.155-3.064 1.156-3.443 2.46-.63 2.178-.63 2.318-.755 2.705a1.355 1.355 0 01-1.087.87h-3.718a1.355 1.355 0 01-1.087-.87c-.165-.492-.984-3.431-1.805-6.394 8.027 2.264 16.45-2 19.378-9.81l.008-.032z"/>
</svg>
